<svg id="Layer_1" height="512" viewBox="0 0 512 512" width="512" xmlns="http://www.w3.org/2000/svg" data-name="Layer 1"><path d="m83 373v100c0 15.19 12.46 28 27.64 28h289.78c15.17 0 27.58-12.81 27.58-28v-100z" fill="#585d68"/><path d="m391.67 373.16v83.24h-272.28v-83.24z" fill="#6d7486"/><path d="m119 373h30v83h-30z" fill="#5a6170"/><path d="m43.11 133.85v89.51h-26.23a5.885 5.885 0 0 1 -5.88-5.89v-77.74a5.877 5.877 0 0 1 5.88-5.88z" fill="#6d7486"/><path d="m501 139.73v77.74a5.885 5.885 0 0 1 -5.88 5.89h-27.18v-89.51h27.18a5.877 5.877 0 0 1 5.88 5.88z" fill="#6d7486"/><path d="m438.94 11.5h-366.83a30 30 0 0 0 -30 30v302.66a30 30 0 0 0 30 30h366.83c16.57 0 30-18.43 30-35v-297.66a30 30 0 0 0 -30-30z" fill="#4a5160"/><rect fill="#6d7486" height="307.2" rx="10" width="373.85" x="68.6" y="39.23"/><path d="m327.89 400.46h33.88v26.63h-33.88z" fill="#f3ce7d"/><path d="m176.68 80.83h77.13v62.83h-77.13z" fill="#90c3d3"/><path d="m149.28 400.46h33.88v26.63h-33.88z" fill="#e87187"/><path d="m209.55 195.74a22.315 22.315 0 1 1 -22.3 22.31 22.3 22.3 0 0 1 22.3-22.31z" fill="#5fa8ed"/><path d="m268.36 400.46h33.87v26.63h-33.87z" fill="#e87187"/><path d="m208.82 400.46h33.88v26.63h-33.88z" fill="#f3ce7d"/><path d="m387.87 90.83v42.83a10 10 0 0 1 -10 10h-46.94v-62.83h46.94a9.991 9.991 0 0 1 10 10z" fill="#90c3d3"/><path d="m259.65 201.55h131.72v34.38h-131.72z" fill="#b0b5ca"/><path d="m253.81 80.83h77.12v62.83h-77.12z" fill="#a5e2fb"/><path d="m176.68 80.83v62.83h-45.1a10 10 0 0 1 -10-10v-42.83a9.991 9.991 0 0 1 10-10z" fill="#a5e2fb"/><path d="m145.36 195.74a22.315 22.315 0 1 1 -22.3 22.31 22.31 22.31 0 0 1 22.3-22.31z" fill="#5fcda4"/><path d="m99 336.43v-287.2c0-5.52 4.08-10.23 9.6-10.23h-30c-5.52 0-9.6 4.71-9.6 10.23v287.2a9.31 9.31 0 0 0 9.6 9.57h30a9.31 9.31 0 0 1 -9.6-9.57z" fill="#5a6170"/><g fill="#284268"><path d="m183.161 394.456h-33.878a6 6 0 0 0 -6 6v26.63a6 6 0 0 0 6 6h33.878a6 6 0 0 0 6-6v-26.63a6 6 0 0 0 -6-6zm-6 26.63h-21.878v-14.63h21.878z"/><path d="m242.7 394.456h-33.881a6 6 0 0 0 -6 6v26.63a6 6 0 0 0 6 6h33.881a6 6 0 0 0 6-6v-26.63a6 6 0 0 0 -6-6zm-6 26.63h-21.881v-14.63h21.881z"/><path d="m361.771 394.456h-33.878a6 6 0 0 0 -6 6v26.63a6 6 0 0 0 6 6h33.878a6 6 0 0 0 6-6v-26.63a6 6 0 0 0 -6-6zm-6 26.63h-21.878v-14.63h21.878z"/><path d="m302.234 394.456h-33.878a6 6 0 0 0 -6 6v26.63a6 6 0 0 0 6 6h33.878a6 6 0 0 0 6-6v-26.63a6 6 0 0 0 -6-6zm-6 26.63h-21.878v-14.63h21.878z"/><path d="m145.359 246.371a28.317 28.317 0 1 0 -28.3-28.317 28.34 28.34 0 0 0 28.3 28.317zm0-44.633a16.317 16.317 0 1 1 -16.3 16.316 16.325 16.325 0 0 1 16.3-16.316z"/><path d="m237.85 218.054a28.3 28.3 0 1 0 -28.3 28.317 28.339 28.339 0 0 0 28.3-28.317zm-44.6 0a16.3 16.3 0 1 1 16.3 16.317 16.326 16.326 0 0 1 -16.298-16.317z"/><path d="m495.121 127.846h-20.179v-86.346a36.04 36.04 0 0 0 -36-36h-366.83a36.041 36.041 0 0 0 -36 36v86.347h-19.233a11.9 11.9 0 0 0 -11.879 11.883v77.743a11.9 11.9 0 0 0 11.879 11.883h19.233v114.805a36.041 36.041 0 0 0 36 36h5.046v92.839a33.527 33.527 0 0 0 33.479 33.5h289.781a33.527 33.527 0 0 0 33.482-33.5v-92.839h5.045c9.605 0 18.791-4.8 25.869-13.5a44.553 44.553 0 0 0 10.131-27.5v-109.8h20.179a11.9 11.9 0 0 0 11.876-11.888v-77.743a11.9 11.9 0 0 0 -11.879-11.884zm-459.009 89.51h-19.112v-77.51h19.112zm385.788 255.644a21.513 21.513 0 0 1 -21.479 21.5h-289.784a21.513 21.513 0 0 1 -21.479-21.5v-92.839h24.23v76.244a6 6 0 0 0 6 6h272.279a6 6 0 0 0 6-6v-76.244h24.233zm-296.509-22.6v-70.239h260.276v70.244zm337.551-111.239c0 13.135-10.7 29-24 29h-366.83a24.027 24.027 0 0 1 -24-24v-302.661a24.028 24.028 0 0 1 24-24h366.83a24.027 24.027 0 0 1 24 24zm32.058-121.805h-20.058v-77.51h20.058z"/><path d="m131.576 149.657h246.3a16.019 16.019 0 0 0 16-16v-42.83a16.018 16.018 0 0 0 -16-16h-246.3a16.018 16.018 0 0 0 -16 16v42.83a16.019 16.019 0 0 0 16 16zm205.353-62.83h40.945a4 4 0 0 1 4 4v42.83a4 4 0 0 1 -4 4h-40.945zm-77.122 0h65.122v50.83h-65.122zm-77.122 0h65.122v50.83h-65.122zm-55.109 4a4 4 0 0 1 4-4h39.109v50.83h-39.109a4 4 0 0 1 -4-4z"/><path d="m398.5 272.056h-33.657a6 6 0 0 0 0 12h33.657a6 6 0 0 0 0-12z"/><path d="m355.147 278.056a6 6 0 0 0 -6-6h-230.976a6 6 0 1 0 0 12h230.976a6 6 0 0 0 6-6z"/><path d="m398.5 299.555h-19.918a6 6 0 0 0 0 12h19.918a6 6 0 0 0 0-12z"/><path d="m338.988 311.555h15.4a6 6 0 0 0 0-12h-15.4a6 6 0 0 0 0 12z"/><path d="m118.171 299.555a6 6 0 1 0 0 12h196.736a6 6 0 0 0 0-12z"/><path d="m391.373 195.554h-131.724a6 6 0 0 0 -6 6v34.375a6 6 0 0 0 6 6h131.724a6 6 0 0 0 6-6v-34.375a6 6 0 0 0 -6-6zm-6 34.375h-119.724v-22.375h119.724z"/><path d="m97 65a6 6 0 0 0 -12 0v2a6 6 0 0 0 12 0z"/><path d="m91 81a6 6 0 0 0 -6 6v92a6 6 0 0 0 12 0v-92a6 6 0 0 0 -6-6z"/><path d="m432.455 33.23h-283.395a6 6 0 0 0 0 12h283.4a4 4 0 0 1 4 4v287.2a4 4 0 0 1 -4 4h-353.86a4 4 0 0 1 -4-4v-287.2a4 4 0 0 1 4-4h30.46a6 6 0 0 0 0-12h-30.46a16 16 0 0 0 -16 16v287.2a16 16 0 0 0 16 16h353.855a16 16 0 0 0 16-16v-287.2a16 16 0 0 0 -16-16z"/></g></svg>