<?xml version="1.0" encoding="iso-8859-1"?>
<!-- Generator: Adobe Illustrator 19.0.0, SVG Export Plug-In . SVG Version: 6.00 Build 0)  -->
<svg version="1.1" id="Capa_1" xmlns="http://www.w3.org/2000/svg" xmlns:xlink="http://www.w3.org/1999/xlink" x="0px" y="0px"
	 viewBox="0 0 512 512" style="enable-background:new 0 0 512 512;" xml:space="preserve">
<g>
	<g transform="translate(1 8)">
		<path style="fill:#AD1457;" d="M408.6,137.067v-34.133c0-23.552-68.779-42.667-153.6-42.667c-4.352,0-8.619,0.085-12.8,0.171
			c-78.848,1.792-140.8,20.139-140.8,42.496v34.133c0,6.997,6.144,13.653,17.067,19.541v19.115c0.022,3.154-1.724,6.054-4.523,7.509
			c-8.107,4.181-12.544,8.789-12.544,13.568v256c0,18.603,42.752,34.389,102.4,40.277c12.032,1.195,24.747,1.877,37.888,2.219h1.024
			c4.096,0.085,8.192,0.171,12.288,0.171c17.92,0,35.157-0.853,51.2-2.389c59.648-5.888,102.4-21.675,102.4-40.277v-256
			c0-4.779-4.437-9.387-12.544-13.568c-2.798-1.455-4.545-4.355-4.523-7.509v-19.115C402.456,150.72,408.6,144.064,408.6,137.067z
			 M203.8,143.211l-2.304-0.256l2.816,0.256H203.8z M305.688,143.211c0.597-0.085,1.109-0.085,1.621-0.171
			c-0.362,0.098-0.734,0.155-1.109,0.171H305.688z"/>
		<path style="fill:#E91E63;" d="M335.555,133.739c4.82-1.21,9.577-2.663,14.251-4.352
			C345.368,130.923,340.589,132.373,335.555,133.739z M383,137.067v-34.133c0-22.357-61.952-40.704-140.8-42.496
			c-78.848,1.792-140.8,20.139-140.8,42.496v34.133c0,6.997,6.144,13.653,17.067,19.541v19.115c0.022,3.154-1.724,6.054-4.523,7.509
			c-8.107,4.181-12.544,8.789-12.544,13.568v256c0,18.603,42.752,34.389,102.4,40.277c12.032,1.195,24.747,1.877,37.888,2.219h1.024
			c13.141-0.341,25.856-1.024,37.888-2.219C340.248,487.189,383,471.403,383,452.8v-256c0-4.779-4.437-9.387-12.544-13.568
			c-2.798-1.455-4.545-4.355-4.523-7.509v-19.115C376.856,150.72,383,144.064,383,137.067z M178.2,143.211
			c-1.877-0.171-3.669-0.341-5.461-0.597c1.877,0.171,3.84,0.427,5.803,0.597H178.2z M280.6,143.211h-0.427
			c0.939-0.085,1.877-0.171,2.731-0.256L280.6,143.211z"/>
		<path style="fill:#AD1457;" d="M408.6,102.933v34.133c0,6.997-6.144,13.653-17.067,19.541
			c-10.392,5.221-21.361,9.202-32.683,11.861c2.43-0.956,4.796-2.068,7.083-3.328C376.856,159.253,383,152.597,383,145.6v-19.115
			C399.213,119.829,408.6,111.637,408.6,102.933z"/>
		<path style="fill:#E91E63;" d="M383,126.485V145.6c0,6.997-6.144,13.653-17.067,19.541c-2.287,1.26-4.653,2.372-7.083,3.328
			c-9.678,2.485-19.475,4.479-29.355,5.973c-7.424,1.109-15.189,2.133-23.296,2.901l-102.4-0.085
			c-37.035-3.584-67.499-11.093-85.333-20.651c-10.923-5.888-17.067-12.544-17.067-19.541v-34.133
			c0,18.603,42.752,34.389,102.4,40.277c16.043,1.536,33.28,2.389,51.2,2.389s35.157-0.853,51.2-2.389
			c17.835-1.612,35.522-4.578,52.907-8.875C367.257,132.323,375.244,129.699,383,126.485z"/>
		<ellipse style="fill:#607D8B;" cx="255" cy="102.933" rx="153.6" ry="42.667"/>
		<ellipse style="fill:#CFD8DC;" cx="242.2" cy="102.933" rx="140.8" ry="42.667"/>
		<path style="fill:#D84315;" d="M408.6,196.8c0,18.603-42.752,34.389-102.4,40.277h-25.6C340.248,231.189,383,215.403,383,196.8
			c0-4.779-4.437-9.387-12.544-13.568c-2.798-1.455-4.545-4.355-4.523-7.509v-9.131c8.836-2.492,17.41-5.836,25.6-9.984v19.115
			c-0.022,3.154,1.724,6.054,4.523,7.509C404.163,187.413,408.6,192.021,408.6,196.8z"/>
		<path style="fill:#FF5722;" d="M383,196.8c0,18.603-42.752,34.389-102.4,40.277h-76.8c-59.648-5.888-102.4-21.675-102.4-40.277
			c0-4.779,4.437-9.387,12.544-13.568c2.798-1.455,4.545-4.355,4.523-7.509v-19.115c17.835,9.557,48.299,17.067,85.333,20.651
			l76.8,0.085h25.6c8.107-0.768,15.872-1.792,23.296-2.901c12.294-1.874,24.462-4.496,36.437-7.851v9.131
			c-0.022,3.154,1.724,6.054,4.523,7.509C378.563,187.413,383,192.021,383,196.8z"/>
		<path style="fill:#CFD8DC;" d="M306.2,143.211v349.867c-16.043,1.536-33.28,2.389-51.2,2.389s-35.157-0.853-51.2-2.389V143.211
			c16.043,1.536,33.28,2.389,51.2,2.389S290.157,144.747,306.2,143.211z"/>
		<g>
			<path style="fill:#607D8B;" d="M246.467,196.8h17.067c4.713,0,8.533,3.82,8.533,8.533v51.2c0,4.713-3.82,8.533-8.533,8.533
				h-17.067c-4.713,0-8.533-3.82-8.533-8.533v-51.2C237.933,200.621,241.754,196.8,246.467,196.8z"/>
			<path style="fill:#607D8B;" d="M246.467,376h17.067c4.713,0,8.533,3.82,8.533,8.533v51.2c0,4.713-3.82,8.533-8.533,8.533h-17.067
				c-4.713,0-8.533-3.821-8.533-8.533v-51.2C237.933,379.821,241.754,376,246.467,376z"/>
		</g>
	</g>
	<g>
		<path d="M315.733,63.06V8.533c0-4.713-3.82-8.533-8.533-8.533s-8.533,3.821-8.533,8.533v52.892
			c-13.949-1.107-28.315-1.692-42.667-1.692c-14.352,0-28.718,0.584-42.667,1.692V8.533c0-4.713-3.821-8.533-8.533-8.533
			c-4.713,0-8.533,3.821-8.533,8.533V63.06c-56.736,6.554-102.4,22.725-102.4,47.873v34.133c0.967,10.602,7.474,19.9,17.103,24.441
			l0.105,14.113c-11.417,5.871-17.208,12.996-17.208,21.179v256c0,26.274,49.889,42.707,110.132,48.651
			c0.264,0.068,0.531,0.121,0.801,0.161c0.097,0,0.178-0.052,0.274-0.055C221.574,511.148,238.786,512,256,512
			c17.214,0,34.426-0.852,50.926-2.443c0.096,0.003,0.177,0.055,0.274,0.055c0.27-0.04,0.537-0.094,0.801-0.161
			c60.243-5.945,110.132-22.377,110.132-48.651v-256c0-8.183-5.792-15.308-17.067-21.087v-14.225
			c9.612-4.543,16.104-13.832,17.067-24.421v-34.133C418.133,85.786,372.469,69.614,315.733,63.06z M196.267,80.225v30.709
			c0,4.713,3.821,8.533,8.533,8.533c4.713,0,8.533-3.821,8.533-8.533V78.526C226.418,77.456,240.572,76.8,256,76.8
			c15.428,0,29.582,0.656,42.667,1.726v32.408c0,4.713,3.82,8.533,8.533,8.533s8.533-3.821,8.533-8.533V80.225
			c55.583,6.741,85.333,21.891,85.333,30.709c0,11.583-51.2,34.133-145.067,34.133s-145.067-22.55-145.067-34.133
			C110.933,102.115,140.684,86.966,196.267,80.225z M393.125,198.796c6.925,3.567,7.906,6.002,7.941,6.007
			c-0.006,8.593-27.234,23.766-85.333,30.736v-42.524c5.013-0.58,10.245-1.27,16.075-2.141c17.809-2.494,35.304-6.868,52.192-13.048
			v5.885C383.959,190.057,387.486,195.887,393.125,198.796z M196.267,175.718c-25.127-2.059-49.724-8.355-72.75-18.622
			c-9.275-5-12.583-9.492-12.583-12.029V135.02c18.289,11.639,49.525,19.65,85.333,23.786V175.718z M118.883,198.796
			c5.634-2.912,9.157-8.741,9.117-15.083v-5.965c22.043,7.847,44.973,12.932,68.267,15.137v42.654
			c-57.946-6.952-85.17-22.059-85.319-30.665C111.098,204.522,112.301,202.18,118.883,198.796z M110.933,460.8V229.241
			c22.964,14.392,63.423,20.905,85.333,23.492v238.775C140.684,484.767,110.933,469.618,110.933,460.8z M213.333,493.208V160.442
			c13.949,1.107,28.315,1.692,42.667,1.692c14.352,0,28.718-0.584,42.667-1.692v332.766c-13.084,1.07-27.239,1.726-42.667,1.726
			C240.572,494.933,226.418,494.277,213.333,493.208z M315.733,491.508V252.733c21.91-2.587,62.369-9.101,85.333-23.492V460.8
			C401.067,469.618,371.316,484.767,315.733,491.508z M388.517,157.079c-18.761,8.682-38.758,14.39-59.275,16.921
			c-4.865,0.728-9.269,1.309-13.508,1.821v-17.015c35.808-4.136,67.045-12.147,85.333-23.786v10.047
			C401.067,147.604,397.758,152.096,388.517,157.079z"/>
		<path d="M264.533,196.267h-17.067c-9.421,0.011-17.056,7.645-17.067,17.067v51.2c0.011,9.421,7.645,17.056,17.067,17.067h17.067
			c9.421-0.011,17.056-7.645,17.067-17.067v-51.2C281.589,203.912,273.955,196.277,264.533,196.267z M247.467,264.533v-51.2h17.067
			l0.009,51.2H247.467z"/>
		<path d="M264.533,375.467h-17.067c-9.421,0.011-17.056,7.645-17.067,17.067v51.2c0.011,9.421,7.645,17.056,17.067,17.067h17.067
			c9.421-0.011,17.056-7.645,17.067-17.067v-51.2C281.589,383.112,273.955,375.477,264.533,375.467z M247.467,443.733v-51.2h17.067
			l0.009,51.2H247.467z"/>
	</g>
</g>
<g>
</g>
<g>
</g>
<g>
</g>
<g>
</g>
<g>
</g>
<g>
</g>
<g>
</g>
<g>
</g>
<g>
</g>
<g>
</g>
<g>
</g>
<g>
</g>
<g>
</g>
<g>
</g>
<g>
</g>
</svg>
